<?xml version="1.0" encoding="utf-8"?>
<!-- Generator: Adobe Illustrator 16.0.0, SVG Export Plug-In . SVG Version: 6.00 Build 0)  -->
<!DOCTYPE svg PUBLIC "-//W3C//DTD SVG 1.1//EN" "http://www.w3.org/Graphics/SVG/1.1/DTD/svg11.dtd">
<svg version="1.1" xmlns="http://www.w3.org/2000/svg" xmlns:xlink="http://www.w3.org/1999/xlink" x="0px" y="0px"
	 width="796.742px" height="382.983px" viewBox="0 0 796.742 382.983" enable-background="new 0 0 796.742 382.983"
	 xml:space="preserve">
<g id="Layer_3">
	<text transform="matrix(0.7034 0 0 0.7 -3.9131 338.6138)" font-family="'GothamRounded-Light'" font-size="78.6411">urban</text>
	<text transform="matrix(1.0049 0 0 1 205.4653 338.6138)" font-family="'GothamRounded-Light'" font-size="78.6411"> </text>
	<text transform="matrix(0.7034 0 0 0.7 229.1724 338.6138)" font-family="'GothamRounded-Light'" font-size="78.6411">complex</text>
	<text transform="matrix(1.0049 0 0 1 513.2295 338.6138)" font-family="'GothamRounded-Light'" font-size="78.6411"> </text>
	<text transform="matrix(0.7034 0 0 0.7 536.9365 338.6138)" font-family="'GothamRounded-Light'" font-size="78.6411">systems</text>
	<text transform="matrix(1 0 0 1 175.4795 382.9829)" font-family="'GothamRounded-Light'" font-size="26.1811">UNESCO I</text>
	<text transform="matrix(0.7 0 0 0.7 306.9595 382.9829)" font-family="'GothamRounded-Light'" font-size="26.1811">nternational</text>
	<text transform="matrix(1 0 0 1 460.5723 382.9829)" font-family="'GothamRounded-Light'" font-size="26.1811"> CS-DC </text>
	<text transform="matrix(0.7 0 0 0.7 562.834 382.9829)" font-family="'GothamRounded-Light'" font-size="26.1811">e</text>
	<text transform="matrix(1 0 0 1 575.1133 382.9829)" font-family="'GothamRounded-Light'" font-size="26.1811">-</text>
	<text transform="matrix(0.7 0 0 0.7 585.7949 382.9829)" font-family="'GothamRounded-Light'" font-size="26.1811">lab</text>
</g>
<g id="Layer_4">
	<linearGradient id="SVGID_1_" gradientUnits="userSpaceOnUse" x1="147.6841" y1="5.8179" x2="113.621" y2="228.608">
		<stop  offset="0" style="stop-color:#B2B2B2"/>
		<stop  offset="1" style="stop-color:#000000"/>
	</linearGradient>
	<path fill="url(#SVGID_1_)" d="M274.602,0v137.312c0,0.322,0,0.646-0.006,0.969c-0.091,13.194-2.041,25.95-5.613,38.012
		C144.615,249.738,46.249,156.144,0,96.313V-0.412h66.573l59.494,94.891v85.839h43.348V34.849L207.939,0H274.602z"/>
	<linearGradient id="SVGID_2_" gradientUnits="userSpaceOnUse" x1="106.5977" y1="127.3667" x2="90.0983" y2="256.3593">
		<stop  offset="0.0122" style="stop-color:#575756"/>
		<stop  offset="0.9983" style="stop-color:#000000"/>
	</linearGradient>
	<linearGradient id="SVGID_3_" gradientUnits="userSpaceOnUse" x1="-0.5" y1="198.0718" x2="198.5317" y2="198.0718">
		<stop  offset="0.0122" style="stop-color:#575756"/>
		<stop  offset="0.9983" style="stop-color:#000000"/>
	</linearGradient>
	<path fill="url(#SVGID_2_)" stroke="url(#SVGID_3_)" stroke-miterlimit="10" d="M196.644,261.162
		c-17.96,8.615-38.092,13.447-59.346,13.447C61.471,274.609,0,213.138,0,137.312v-14.318
		C31.142,180.021,91.121,252.753,196.644,261.162z"/>
	<linearGradient id="SVGID_4_" gradientUnits="userSpaceOnUse" x1="0" y1="178.7373" x2="268.9829" y2="178.7373">
		<stop  offset="0" style="stop-color:#E30613"/>
		<stop  offset="1" style="stop-color:#8F1913"/>
	</linearGradient>
	<path fill="url(#SVGID_4_)" d="M268.983,176.292c-11.062,37.447-37.664,68.221-72.339,84.869
		C91.121,252.753,31.142,180.021,0,122.993v-26.68C46.249,156.144,144.615,249.738,268.983,176.292z"/>
	
		<radialGradient id="SVGID_5_" cx="164.0786" cy="83.4429" r="151.2469" gradientTransform="matrix(-0.3536 0.9354 -1.3597 -0.5139 335.5462 -27.1543)" gradientUnits="userSpaceOnUse">
		<stop  offset="0.6771" style="stop-color:#8F1913"/>
		<stop  offset="1" style="stop-color:#E30613;stop-opacity:0"/>
	</radialGradient>
	<path fill="url(#SVGID_5_)" d="M268.983,176.018c-11.062,37.447-37.664,68.221-72.339,84.869
		C91.121,252.479,31.142,179.747,0,122.719V96.039C46.249,155.87,144.615,249.463,268.983,176.018z"/>
	
		<radialGradient id="SVGID_6_" cx="153.0054" cy="118.8896" r="140.6222" gradientTransform="matrix(-0.5505 0.8349 -1.3557 -0.8938 398.404 97.4184)" gradientUnits="userSpaceOnUse">
		<stop  offset="0.7406" style="stop-color:#E30613;stop-opacity:0"/>
		<stop  offset="0.8905" style="stop-color:#8F1913"/>
	</radialGradient>
	<path fill="url(#SVGID_6_)" d="M268.983,176.292c-11.062,37.446-37.664,68.221-72.339,84.869
		C91.121,252.753,31.142,180.02,0,122.993v-26.68C46.249,156.143,144.615,249.738,268.983,176.292z"/>
	<linearGradient id="SVGID_7_" gradientUnits="userSpaceOnUse" x1="384.1719" y1="-49.5645" x2="426.8385" y2="143.1022">
		<stop  offset="0" style="stop-color:#B2B2B2"/>
		<stop  offset="1" style="stop-color:#000000"/>
	</linearGradient>
	<path fill="url(#SVGID_7_)" d="M515.347,34.195l-67.1,67.67h-68.891l-79.04-21.5c21.66-47.25,69.37-80.08,124.75-80.08
		C459.646,0.285,491.227,13.075,515.347,34.195z"/>
	<linearGradient id="SVGID_8_" gradientUnits="userSpaceOnUse" x1="418.8037" y1="169.5522" x2="424.1376" y2="264.2184">
		<stop  offset="0" style="stop-color:#2D2D2D"/>
		<stop  offset="1" style="stop-color:#000000"/>
	</linearGradient>
	<path fill="url(#SVGID_8_)" d="M540.297,211.855c-24.43,37.76-66.91,62.75-115.229,62.75c-54.641,0-101.811-31.949-123.86-78.18
		l78.149-25.051h69.221L540.297,211.855z"/>
	<linearGradient id="SVGID_9_" gradientUnits="userSpaceOnUse" x1="716.835" y1="267.1138" x2="648.0304" y2="161.8836">
		<stop  offset="0" style="stop-color:#2D2D2D"/>
		<stop  offset="1" style="stop-color:#000000"/>
	</linearGradient>
	<path fill="url(#SVGID_9_)" d="M706.777,267.684H561.423l55.389-73.999v-0.007l1.137-1.516l31.63-42.255l45.824-61.226l0.463-0.71
		h11.292c39.769,0.165,73.438,26.088,85.154,61.936c2.875,8.787,4.431,18.176,4.431,27.92c0,49.503-40.072,89.646-89.585,89.856"/>
	<linearGradient id="SVGID_10_" gradientUnits="userSpaceOnUse" x1="665.5352" y1="117.1011" x2="592.6456" y2="256.4661">
		<stop  offset="0" style="stop-color:#36A9E1"/>
		<stop  offset="1" style="stop-color:#0062A2"/>
	</linearGradient>
	<polygon fill="url(#SVGID_10_)" points="614.925,267.684 696.429,87.023 558.63,267.684 	"/>
	<linearGradient id="SVGID_11_" gradientUnits="userSpaceOnUse" x1="296.4473" y1="82.9272" x2="362.4188" y2="182.5865">
		<stop  offset="0" style="stop-color:#7DBA28"/>
		<stop  offset="1" style="stop-color:#3AAA35"/>
	</linearGradient>
	<path fill="url(#SVGID_11_)" d="M379.356,101.865v69.509l-78.149,25.051c-8.52-17.87-13.29-37.87-13.29-58.98
		c0-20.37,4.44-39.7,12.4-57.08L379.356,101.865z"/>
	<linearGradient id="SVGID_12_" gradientUnits="userSpaceOnUse" x1="339.4102" y1="118.9751" x2="346.0456" y2="86.2376">
		<stop  offset="0" style="stop-color:#7DBA28;stop-opacity:0"/>
		<stop  offset="1" style="stop-color:#006633"/>
	</linearGradient>
	<path fill="url(#SVGID_12_)" d="M379.356,101.865v69.509l-78.149,25.051c-8.52-17.87-13.29-37.87-13.29-58.98
		c0-20.37,4.44-39.7,12.4-57.08L379.356,101.865z"/>
	<linearGradient id="SVGID_13_" gradientUnits="userSpaceOnUse" x1="341.9526" y1="156.1191" x2="351.2371" y2="184.5912">
		<stop  offset="0" style="stop-color:#7DBA28;stop-opacity:0"/>
		<stop  offset="1" style="stop-color:#006633"/>
	</linearGradient>
	<path fill="url(#SVGID_13_)" d="M379.356,101.865v69.509l-78.149,25.051c-8.52-17.87-13.29-37.87-13.29-58.98
		c0-20.37,4.44-39.7,12.4-57.08L379.356,101.865z"/>
	<linearGradient id="SVGID_14_" gradientUnits="userSpaceOnUse" x1="632.1074" y1="179.6929" x2="656.2281" y2="190.2014">
		<stop  offset="0" style="stop-color:#36A9E1;stop-opacity:0"/>
		<stop  offset="1" style="stop-color:#00406C"/>
	</linearGradient>
	<polygon fill="url(#SVGID_14_)" points="615.676,267.902 695.865,87.972 560.288,267.902 	"/>
	<linearGradient id="SVGID_15_" gradientUnits="userSpaceOnUse" x1="625.6689" y1="8.9146" x2="680.0714" y2="91.0971">
		<stop  offset="0" style="stop-color:#B2B2B2"/>
		<stop  offset="1" style="stop-color:#575756"/>
	</linearGradient>
	<path fill="url(#SVGID_15_)" d="M646.89,151.981h-28.996c-41.971,0-75.987-34.023-75.987-75.987
		C541.906,34.023,575.923,0,617.894,0h145.191"/>
</g>
</svg>
